<?xml version="1.0" standalone="no"?>
<!DOCTYPE svg PUBLIC "-//W3C//DTD SVG 20010904//EN"
 "http://www.w3.org/TR/2001/REC-SVG-20010904/DTD/svg10.dtd">
<svg version="1.0" xmlns="http://www.w3.org/2000/svg"
 width="512.000000pt" height="512.000000pt" viewBox="0 0 512.000000 512.000000"
 preserveAspectRatio="xMidYMid meet">

<g transform="translate(0.000000,512.000000) scale(0.100000,-0.100000)"
fill="#000000" stroke="none">
<path d="M2717 3922 l-768 -768 41 -19 c23 -10 51 -32 62 -48 23 -32 35 -109
23 -154 -4 -18 -70 -92 -178 -201 l-172 -172 167 -168 c91 -92 171 -177 177
-189 6 -12 11 -44 11 -71 0 -54 -25 -100 -71 -135 -35 -25 -105 -33 -146 -16
-49 22 -496 461 -518 510 l-19 40 -448 -448 -448 -448 0 -95 c0 -313 97 -571
294 -777 119 -127 256 -215 416 -271 171 -59 118 -57 1440 -57 l1215 0 97 27
c189 52 336 136 475 271 142 138 237 300 291 495 l27 97 3 1170 c2 845 0 1196
-8 1265 -59 479 -440 859 -922 920 -46 5 -125 10 -178 10 l-95 0 -768 -768z
m141 -472 c37 -23 69 -71 78 -117 5 -24 -48 -220 -216 -805 -122 -425 -230
-787 -241 -805 -22 -35 -90 -73 -132 -73 -91 0 -181 104 -161 186 34 146 440
1545 453 1564 49 69 150 92 219 50z m405 -314 c18 -8 141 -123 274 -257 338
-341 338 -297 -5 -641 -260 -262 -278 -275 -355 -265 -102 14 -164 124 -126
224 6 15 85 103 177 196 l167 167 -167 168 c-91 92 -171 177 -177 189 -15 30
-14 109 3 141 41 79 130 112 209 78z"/>
</g>
</svg>
